<svg width="26" height="26" viewBox="0 0 26 26" fill="none" xmlns="http://www.w3.org/2000/svg">
<path d="M12.646 3.16125C15.5553 3.16135 17.9146 5.52113 17.9146 8.43079V9.53625C19.1184 9.78101 20.0229 10.8437 20.0229 12.1183V19.4952C20.0227 20.9499 18.8431 22.129 17.3872 22.129H7.90381C6.4479 22.1289 5.2693 20.9498 5.26904 19.4952V12.1183C5.26904 10.8436 6.17355 9.78094 7.37744 9.53625V8.43079C7.37744 5.52107 9.7366 3.16125 12.646 3.16125ZM7.90381 10.5382C7.0313 10.5382 6.32283 11.2458 6.32275 12.1183V19.4952C6.32291 20.3676 7.03134 21.0753 7.90381 21.0753H17.3882C18.2605 21.0751 18.9681 20.3675 18.9683 19.4952V12.1183C18.9682 11.2859 18.3262 10.6043 17.5093 10.5421C17.34 10.5568 17.293 10.5508 17.2476 10.5382H7.90381ZM12.646 12.6456C13.8097 12.6458 14.7534 13.5892 14.7534 14.7531V15.1554C14.7534 16.0122 14.5536 16.8569 14.1704 17.6232L13.8794 18.2052C13.6459 18.6724 13.1686 18.9678 12.646 18.9679C12.1233 18.9679 11.6452 18.6725 11.4116 18.2052L11.1206 17.6232C10.7375 16.8569 10.5376 16.0122 10.5376 15.1554V14.7531C10.5376 13.5891 11.4822 12.6456 12.646 12.6456ZM12.646 13.6993C12.0641 13.6994 11.5923 14.171 11.5923 14.7531V15.1554C11.5923 15.8484 11.7542 16.5315 12.064 17.1515L12.355 17.7345C12.4102 17.8448 12.5228 17.9142 12.646 17.9142C12.7692 17.9142 12.8817 17.8448 12.937 17.7345L13.229 17.1515C13.5387 16.5316 13.6997 15.8483 13.6997 15.1554V14.7531C13.6997 14.171 13.2279 13.6993 12.646 13.6993ZM12.646 4.21497C10.3184 4.21497 8.43039 6.10218 8.43018 8.42981V9.48352H16.8608V8.42981C16.8606 6.10219 14.9735 4.21499 12.646 4.21497Z" fill="#808080"/>
</svg>
