<svg width="27" height="26" viewBox="0 0 27 26" fill="none" xmlns="http://www.w3.org/2000/svg">
<path d="M13.1328 4.21521C16.1549 4.21521 18.6043 6.5738 18.6045 9.48376C18.6045 11.1698 17.7818 12.6727 16.502 13.6371L20.2842 15.2924C21.2609 15.7189 21.8875 16.6582 21.8877 17.6898V18.4418C21.8877 19.8952 20.6616 21.0756 19.1523 21.0756H7.11426C5.60337 21.0753 4.37793 19.895 4.37793 18.4418V17.6898C4.37809 16.6583 5.00465 15.719 5.98145 15.2924L9.76367 13.6371C8.48376 12.6727 7.66113 11.1698 7.66113 9.48376C7.66135 6.5738 10.1108 4.21521 13.1328 4.21521ZM15.3633 14.3002C14.6831 14.5931 13.9278 14.7562 13.1328 14.7562C12.3378 14.7562 11.5825 14.5931 10.9023 14.3002L6.43457 16.2543C5.84942 16.5105 5.47182 17.0727 5.47168 17.6918V18.4418C5.47168 19.3144 6.2078 20.0219 7.11328 20.0219H19.1523C20.0577 20.0218 20.793 19.3144 20.793 18.4418V17.6918C20.7928 17.0727 20.4162 16.5105 19.8311 16.2543L15.3633 14.3002ZM13.1328 5.26892C10.7157 5.26892 8.7551 7.15634 8.75488 9.48376C8.75488 11.8114 10.7156 13.6996 13.1328 13.6996C15.5501 13.6996 17.5098 11.8114 17.5098 9.48376C17.5095 7.15635 15.5499 5.26894 13.1328 5.26892Z" fill="#808080"/>
</svg>
