<svg width="613" height="539" viewBox="0 0 613 539" fill="none" xmlns="http://www.w3.org/2000/svg">
<path d="M298.859 291.707C302.855 291.707 306.735 292.044 310.499 292.721C320.004 294.303 328.491 297.686 335.959 302.871C343.308 307.972 349.486 314.69 354.495 323.025C359.372 331.14 363.043 340.632 365.506 351.501C367.937 362.229 369.153 374.125 369.153 387.187C369.153 405.186 366.583 422.04 361.442 437.75C356.286 453.507 348.645 467.816 338.515 480.675C328.339 493.593 315.844 504.801 301.035 514.299C286.104 523.874 269.066 531.549 249.922 537.322L244.463 538.969L220.788 476.626L226.722 474.562C236.408 471.188 245.179 467.269 253.037 462.805C260.623 458.495 267.222 453.754 272.835 448.581C278.269 443.572 282.672 438.256 286.046 432.633C288.04 429.308 289.652 425.912 290.881 422.443C286.938 421.976 283.097 421.155 279.359 419.982C273.343 418.095 267.775 415.355 262.657 411.762C257.642 408.24 253.233 404.025 249.435 399.115C245.781 394.395 242.822 389.203 240.559 383.54C237.776 379.105 235.647 374.32 234.174 369.185C232.584 363.641 231.789 357.796 231.789 351.649C231.789 347.233 232.233 342.944 233.124 338.782C233.998 334.706 235.288 330.801 236.995 327.07C238.667 323.413 240.716 319.972 243.143 316.748C245.526 313.582 248.237 310.671 251.275 308.019C254.273 305.401 257.544 303.074 261.086 301.037C264.605 299.014 268.338 297.309 272.284 295.922C276.235 294.533 280.34 293.485 284.599 292.777C288.896 292.064 293.288 291.707 297.774 291.707H298.859ZM297.774 303.925C290.169 303.925 283.023 305.099 276.339 307.447C269.836 309.732 264.163 312.99 259.32 317.219C254.461 321.463 250.726 326.438 248.114 332.148C245.38 338.124 244.014 344.626 244.014 351.649C244.014 356.651 244.651 361.374 245.926 365.816C247.127 370.002 248.877 373.881 251.174 377.455L251.505 377.97L251.729 378.541C253.591 383.329 256.051 387.695 259.104 391.642C262.15 395.577 265.677 398.95 269.686 401.765C273.768 404.631 278.213 406.818 283.021 408.326C288.026 409.898 293.283 410.685 298.789 410.689L306.272 410.697L304.771 418.023C303.288 425.265 300.54 432.23 296.53 438.914C292.556 445.543 287.419 451.759 281.123 457.562C274.824 463.367 267.477 468.654 259.08 473.425C252.216 477.325 244.735 480.83 236.643 483.939L251.823 523.915C267.673 518.701 281.877 512.068 294.432 504.016C308.089 495.257 319.58 484.958 328.908 473.116C338.144 461.392 345.116 448.338 349.822 433.953C354.559 419.477 356.929 403.888 356.929 387.187C356.929 375.035 355.813 364.039 353.583 354.199C351.408 344.604 348.22 336.31 344.016 329.315C339.906 322.478 334.897 317.008 328.986 312.904C323.022 308.764 316.19 306.055 308.491 304.773C305.34 304.207 302.129 303.925 298.859 303.925H297.774ZM99.3291 79.6006H86.2178C60.3923 79.6006 53.6377 93.4983 53.6377 124.072C53.6377 151.867 56.0215 175.692 56.0215 207.457C56.0215 233.663 50.4592 248.355 32.5801 253.517V255.105C50.4592 260.664 56.0215 275.753 56.0215 301.562C56.0215 332.931 53.6377 356.755 53.6377 384.946C53.6377 414.726 60.3922 429.021 86.2178 429.021H99.3291V443.315H83.0391C50.0619 443.315 34.169 431.403 34.1689 386.932C34.1689 354.372 37.7451 327.769 37.7451 297.592C37.7451 279.327 30.5934 262.253 0 261.855V246.37C30.5932 246.37 37.745 228.899 37.7451 211.825C37.7451 180.854 34.1689 154.25 34.1689 122.087C34.169 77.6157 50.062 64.9092 83.0391 64.9092H99.3291V79.6006ZM529.319 64.9092C562.694 64.9092 578.984 77.6156 578.984 122.087C578.984 154.25 575.011 180.854 575.011 211.825C575.011 228.899 582.163 246.37 612.756 246.37V261.855C582.163 262.253 575.011 279.327 575.011 297.592C575.011 327.769 578.984 354.372 578.984 386.932C578.984 431.403 562.694 443.315 529.319 443.315H513.427V429.021H526.141C552.364 429.021 559.516 414.726 559.516 384.946C559.516 356.755 556.734 332.931 556.734 301.562C556.734 275.753 562.297 260.664 579.779 255.105V253.517C562.297 248.355 556.734 233.663 556.734 207.457C556.734 175.692 559.516 151.867 559.516 124.072C559.516 93.4983 552.363 79.6006 526.141 79.6006H513.427V64.9092H529.319ZM305.415 0C310.146 1.14405e-05 315.299 0.546563 320.877 1.64062C326.439 2.73195 332.162 4.31692 338.045 6.39453C344.122 8.54031 350.107 11.1214 356.001 14.1367C362.219 17.3178 368.123 20.8748 373.711 24.8086C379.678 29.0106 385.135 33.538 390.082 38.3896C395.398 43.6046 400.027 49.1017 403.968 54.8809C408.208 61.1003 411.597 67.5636 414.129 74.2705C416.841 81.4529 418.543 88.8366 419.235 96.4209C420.077 105.639 419.917 114.381 418.751 122.648C417.631 130.602 415.558 138.263 412.534 145.63C409.715 152.502 405.993 159.291 401.37 165.995C397.218 172.017 392.155 178.225 386.184 184.619C382.466 188.602 379.7 191.589 377.889 193.579C374.901 196.864 372.287 199.841 370.048 202.509C367.39 205.675 365.023 208.685 362.943 211.541C360.637 214.705 358.603 217.792 356.84 220.799C352.966 227.407 350.211 233.989 348.577 240.547C346.758 247.845 346.236 255.429 347.013 263.299L347.674 270.006H252.092L251.285 264.839C249.021 250.329 249.605 236.311 253.042 222.785L254.992 215.116L261.923 218.939C266.976 221.73 272.289 223.851 277.862 225.305C283.61 226.804 289.483 227.555 295.482 227.555C333.883 227.554 365.012 196.445 365.013 158.068C365.013 119.692 333.883 88.5813 295.482 88.5811C290.945 88.5811 286.472 89.0116 282.061 89.873C277.762 90.7127 273.582 91.9496 269.521 93.584C265.533 95.1892 261.723 97.1529 258.09 99.4736C254.493 101.772 251.13 104.38 248.007 107.3L242.187 112.738L238.438 105.711C236.284 101.673 233.642 97.4992 230.51 93.1895C227.224 88.6676 223.221 84.0986 218.5 79.4824C214.681 75.7471 210.488 72.0727 205.922 68.4609C202.653 65.8754 199.366 63.4543 196.061 61.1982C194.433 60.0874 193.145 59.2416 192.196 58.6611L186.02 54.8818L190.786 49.4316C198.497 40.6148 206.486 33.0927 214.755 26.8662C223.12 20.566 231.991 15.424 241.369 11.4395C250.632 7.50405 260.627 4.59658 271.355 2.71875C281.712 0.905985 293.065 5.82574e-06 305.415 0ZM340.45 226.313C327.548 234.821 312.094 239.772 295.481 239.772C288.435 239.772 281.533 238.891 274.774 237.127C270.855 236.104 267.043 234.8 263.342 233.216C262.029 241.2 261.812 249.39 262.689 257.788H334.451C334.324 250.882 335.079 244.15 336.714 237.593C337.653 233.824 338.899 230.064 340.45 226.313ZM296.246 103.853C325.785 103.853 349.73 127.784 349.73 157.305C349.73 186.825 325.785 210.756 296.246 210.756C266.707 210.756 242.761 186.825 242.761 157.305C242.761 127.784 266.707 103.853 296.246 103.853ZM305.415 12.2178C293.774 12.2178 283.123 13.0633 273.464 14.7539C263.656 16.4704 254.553 19.1132 246.151 22.6826C237.693 26.2768 229.68 30.9235 222.111 36.623C216.17 41.0974 210.363 46.3263 204.69 52.3086C207.647 54.3786 210.586 56.5698 213.509 58.8818C218.411 62.7589 222.924 66.7145 227.05 70.749C232.262 75.8454 236.713 80.9332 240.403 86.0107C242.228 88.5222 243.907 91.0018 245.442 93.4492C247.395 91.9365 249.416 90.5132 251.507 89.1787C255.779 86.4493 260.261 84.1399 264.954 82.251C269.736 80.3269 274.656 78.8712 279.716 77.8828C284.901 76.8702 290.156 76.3633 295.481 76.3633C340.633 76.3633 377.237 112.944 377.237 158.068C377.237 165.403 376.27 172.514 374.456 179.277C375.319 178.349 376.248 177.352 377.246 176.284C382.806 170.33 387.493 164.59 391.303 159.063C395.43 153.08 398.736 147.057 401.223 140.995C403.859 134.572 405.667 127.887 406.645 120.943C407.679 113.612 407.818 105.808 407.062 97.5312C406.47 91.048 405.012 84.732 402.69 78.584C400.501 72.7856 397.559 67.1778 393.865 61.7607C390.377 56.645 386.261 51.761 381.518 47.1084C377.045 42.7211 372.095 38.6172 366.669 34.7969C361.551 31.1933 356.138 27.9315 350.431 25.0117C345.021 22.2443 339.535 19.8785 333.973 17.9141C328.65 16.0346 323.499 14.6066 318.521 13.6299C313.722 12.6884 309.353 12.2178 305.415 12.2178Z" fill="#746AEB"/>
<path d="M298.859 291.707C302.855 291.707 306.735 292.044 310.499 292.721C320.004 294.303 328.491 297.686 335.959 302.871C343.308 307.972 349.486 314.69 354.495 323.025C359.372 331.14 363.043 340.632 365.506 351.501C367.937 362.229 369.153 374.125 369.153 387.187C369.153 405.186 366.583 422.04 361.442 437.75C356.286 453.507 348.645 467.816 338.515 480.675C328.339 493.593 315.844 504.801 301.035 514.299C286.104 523.874 269.066 531.549 249.922 537.322L244.463 538.969L220.788 476.626L226.722 474.562C236.408 471.188 245.179 467.269 253.037 462.805C260.623 458.495 267.222 453.754 272.835 448.581C278.269 443.572 282.672 438.256 286.046 432.633C288.04 429.308 289.652 425.912 290.881 422.443C286.938 421.976 283.097 421.155 279.359 419.982C273.343 418.095 267.775 415.355 262.657 411.762C257.642 408.24 253.233 404.025 249.435 399.115C245.781 394.395 242.822 389.203 240.559 383.54C237.776 379.105 235.647 374.32 234.174 369.185C232.584 363.641 231.789 357.796 231.789 351.649C231.789 347.233 232.233 342.944 233.124 338.782C233.998 334.706 235.288 330.801 236.995 327.07C238.667 323.413 240.716 319.972 243.143 316.748C245.526 313.582 248.237 310.671 251.275 308.019C254.273 305.401 257.544 303.074 261.086 301.037C264.605 299.014 268.338 297.309 272.284 295.922C276.235 294.533 280.34 293.485 284.599 292.777C288.896 292.064 293.288 291.707 297.774 291.707H298.859ZM297.774 303.925C290.169 303.925 283.023 305.099 276.339 307.447C269.836 309.732 264.163 312.99 259.32 317.219C254.461 321.463 250.726 326.438 248.114 332.148C245.38 338.124 244.014 344.626 244.014 351.649C244.014 356.651 244.651 361.374 245.926 365.816C247.127 370.002 248.877 373.881 251.174 377.455L251.505 377.97L251.729 378.541C253.591 383.329 256.051 387.695 259.104 391.642C262.15 395.577 265.677 398.95 269.686 401.765C273.768 404.631 278.213 406.818 283.021 408.326C288.026 409.898 293.283 410.685 298.789 410.689L306.272 410.697L304.771 418.023C303.288 425.265 300.54 432.23 296.53 438.914C292.556 445.543 287.419 451.759 281.123 457.562C274.824 463.367 267.477 468.654 259.08 473.425C252.216 477.325 244.735 480.83 236.643 483.939L251.823 523.915C267.673 518.701 281.877 512.068 294.432 504.016C308.089 495.257 319.58 484.958 328.908 473.116C338.144 461.392 345.116 448.338 349.822 433.953C354.559 419.477 356.929 403.888 356.929 387.187C356.929 375.035 355.813 364.039 353.583 354.199C351.408 344.604 348.22 336.31 344.016 329.315C339.906 322.478 334.897 317.008 328.986 312.904C323.022 308.764 316.19 306.055 308.491 304.773C305.34 304.207 302.129 303.925 298.859 303.925H297.774ZM99.3291 79.6006H86.2178C60.3923 79.6006 53.6377 93.4983 53.6377 124.072C53.6377 151.867 56.0215 175.692 56.0215 207.457C56.0215 233.663 50.4592 248.355 32.5801 253.517V255.105C50.4592 260.664 56.0215 275.753 56.0215 301.562C56.0215 332.931 53.6377 356.755 53.6377 384.946C53.6377 414.726 60.3922 429.021 86.2178 429.021H99.3291V443.315H83.0391C50.0619 443.315 34.169 431.403 34.1689 386.932C34.1689 354.372 37.7451 327.769 37.7451 297.592C37.7451 279.327 30.5934 262.253 0 261.855V246.37C30.5932 246.37 37.745 228.899 37.7451 211.825C37.7451 180.854 34.1689 154.25 34.1689 122.087C34.169 77.6157 50.062 64.9092 83.0391 64.9092H99.3291V79.6006ZM529.319 64.9092C562.694 64.9092 578.984 77.6156 578.984 122.087C578.984 154.25 575.011 180.854 575.011 211.825C575.011 228.899 582.163 246.37 612.756 246.37V261.855C582.163 262.253 575.011 279.327 575.011 297.592C575.011 327.769 578.984 354.372 578.984 386.932C578.984 431.403 562.694 443.315 529.319 443.315H513.427V429.021H526.141C552.364 429.021 559.516 414.726 559.516 384.946C559.516 356.755 556.734 332.931 556.734 301.562C556.734 275.753 562.297 260.664 579.779 255.105V253.517C562.297 248.355 556.734 233.663 556.734 207.457C556.734 175.692 559.516 151.867 559.516 124.072C559.516 93.4983 552.363 79.6006 526.141 79.6006H513.427V64.9092H529.319ZM305.415 0C310.146 1.14405e-05 315.299 0.546563 320.877 1.64062C326.439 2.73195 332.162 4.31692 338.045 6.39453C344.122 8.54031 350.107 11.1214 356.001 14.1367C362.219 17.3178 368.123 20.8748 373.711 24.8086C379.678 29.0106 385.135 33.538 390.082 38.3896C395.398 43.6046 400.027 49.1017 403.968 54.8809C408.208 61.1003 411.597 67.5636 414.129 74.2705C416.841 81.4529 418.543 88.8366 419.235 96.4209C420.077 105.639 419.917 114.381 418.751 122.648C417.631 130.602 415.558 138.263 412.534 145.63C409.715 152.502 405.993 159.291 401.37 165.995C397.218 172.017 392.155 178.225 386.184 184.619C382.466 188.602 379.7 191.589 377.889 193.579C374.901 196.864 372.287 199.841 370.048 202.509C367.39 205.675 365.023 208.685 362.943 211.541C360.637 214.705 358.603 217.792 356.84 220.799C352.966 227.407 350.211 233.989 348.577 240.547C346.758 247.845 346.236 255.429 347.013 263.299L347.674 270.006H252.092L251.285 264.839C249.021 250.329 249.605 236.311 253.042 222.785L254.992 215.116L261.923 218.939C266.976 221.73 272.289 223.851 277.862 225.305C283.61 226.804 289.483 227.555 295.482 227.555C333.883 227.554 365.012 196.445 365.013 158.068C365.013 119.692 333.883 88.5813 295.482 88.5811C290.945 88.5811 286.472 89.0116 282.061 89.873C277.762 90.7127 273.582 91.9496 269.521 93.584C265.533 95.1892 261.723 97.1529 258.09 99.4736C254.493 101.772 251.13 104.38 248.007 107.3L242.187 112.738L238.438 105.711C236.284 101.673 233.642 97.4992 230.51 93.1895C227.224 88.6676 223.221 84.0986 218.5 79.4824C214.681 75.7471 210.488 72.0727 205.922 68.4609C202.653 65.8754 199.366 63.4543 196.061 61.1982C194.433 60.0874 193.145 59.2416 192.196 58.6611L186.02 54.8818L190.786 49.4316C198.497 40.6148 206.486 33.0927 214.755 26.8662C223.12 20.566 231.991 15.424 241.369 11.4395C250.632 7.50405 260.627 4.59658 271.355 2.71875C281.712 0.905985 293.065 5.82574e-06 305.415 0ZM340.45 226.313C327.548 234.821 312.094 239.772 295.481 239.772C288.435 239.772 281.533 238.891 274.774 237.127C270.855 236.104 267.043 234.8 263.342 233.216C262.029 241.2 261.812 249.39 262.689 257.788H334.451C334.324 250.882 335.079 244.15 336.714 237.593C337.653 233.824 338.899 230.064 340.45 226.313ZM296.246 103.853C325.785 103.853 349.73 127.784 349.73 157.305C349.73 186.825 325.785 210.756 296.246 210.756C266.707 210.756 242.761 186.825 242.761 157.305C242.761 127.784 266.707 103.853 296.246 103.853ZM305.415 12.2178C293.774 12.2178 283.123 13.0633 273.464 14.7539C263.656 16.4704 254.553 19.1132 246.151 22.6826C237.693 26.2768 229.68 30.9235 222.111 36.623C216.17 41.0974 210.363 46.3263 204.69 52.3086C207.647 54.3786 210.586 56.5698 213.509 58.8818C218.411 62.7589 222.924 66.7145 227.05 70.749C232.262 75.8454 236.713 80.9332 240.403 86.0107C242.228 88.5222 243.907 91.0018 245.442 93.4492C247.395 91.9365 249.416 90.5132 251.507 89.1787C255.779 86.4493 260.261 84.1399 264.954 82.251C269.736 80.3269 274.656 78.8712 279.716 77.8828C284.901 76.8702 290.156 76.3633 295.481 76.3633C340.633 76.3633 377.237 112.944 377.237 158.068C377.237 165.403 376.27 172.514 374.456 179.277C375.319 178.349 376.248 177.352 377.246 176.284C382.806 170.33 387.493 164.59 391.303 159.063C395.43 153.08 398.736 147.057 401.223 140.995C403.859 134.572 405.667 127.887 406.645 120.943C407.679 113.612 407.818 105.808 407.062 97.5312C406.47 91.048 405.012 84.732 402.69 78.584C400.501 72.7856 397.559 67.1778 393.865 61.7607C390.377 56.645 386.261 51.761 381.518 47.1084C377.045 42.7211 372.095 38.6172 366.669 34.7969C361.551 31.1933 356.138 27.9315 350.431 25.0117C345.021 22.2443 339.535 19.8785 333.973 17.9141C328.65 16.0346 323.499 14.6066 318.521 13.6299C313.722 12.6884 309.353 12.2178 305.415 12.2178Z" fill="url(#paint0_linear_169_33)"/>
<defs>
<linearGradient id="paint0_linear_169_33" x1="-307.095" y1="215.151" x2="183.627" y2="748.778" gradientUnits="userSpaceOnUse">
<stop stop-color="#A263CF"/>
<stop offset="1" stop-color="#8194F0"/>
</linearGradient>
</defs>
</svg>
